<svg width="26" height="27" viewBox="0 0 26 27" fill="none" xmlns="http://www.w3.org/2000/svg">
<g id="SSO Icon">
<path id="&#239;&#163;&#191;" d="M13.7897 6.87881C14.9395 6.87881 16.3809 6.10145 17.2392 5.06496C18.0166 4.12565 18.5834 2.81385 18.5834 1.50205C18.5834 1.3239 18.5672 1.14576 18.5348 1C17.2554 1.04859 15.7169 1.85834 14.7938 2.94341C14.065 3.76936 13.401 5.06497 13.401 6.39296C13.401 6.5873 13.4334 6.78164 13.4496 6.84642C13.5306 6.86262 13.6601 6.87881 13.7897 6.87881ZM9.74091 26.4749C11.3118 26.4749 12.0082 25.4222 13.9678 25.4222C15.9598 25.4222 16.3971 26.4425 18.1462 26.4425C19.8628 26.4425 21.0127 24.8554 22.0978 23.3006C23.3124 21.5192 23.8144 19.7701 23.8468 19.6891C23.7335 19.6567 20.4459 18.3125 20.4459 14.5391C20.4459 11.2677 23.0371 9.79393 23.1828 9.68056C21.4662 7.21891 18.8587 7.15413 18.1462 7.15413C16.2189 7.15413 14.648 8.32018 13.6601 8.32018C12.5912 8.32018 11.1823 7.21891 9.51418 7.21891C6.33995 7.21891 3.11713 9.84251 3.11713 14.7982C3.11713 17.8753 4.31556 21.1305 5.78931 23.2358C7.05253 25.0173 8.1538 26.4749 9.74091 26.4749Z" fill="white"/>
</g>
</svg>
